<?xml version="1.0" encoding="UTF-8" standalone="no"?>
<!DOCTYPE svg PUBLIC "-//W3C//DTD SVG 1.1//EN" "http://www.w3.org/Graphics/SVG/1.1/DTD/svg11.dtd">
<svg width="100%" height="100%" viewBox="0 0 700 192" version="1.1" xmlns="http://www.w3.org/2000/svg" xmlns:xlink="http://www.w3.org/1999/xlink" xml:space="preserve" xmlns:serif="http://www.serif.com/" style="fill-rule:evenodd;clip-rule:evenodd;stroke-linejoin:round;stroke-miterlimit:2;">
  <rect id="画板1" x="0" y="0" width="700" height="191.645" style="fill:none;" />
  <g>
    <path d="M57.87,72.366l-52.102,0l0,-7.149l52.79,0c0.091,-0.824 0.137,-1.649 0.137,-2.474l0,-28.869l19.246,0l0,28.869c0,0.825 -0.046,1.65 -0.137,2.474l53.064,0l0,7.149l-52.239,0c4.399,32.902 21.812,60.213 52.239,81.934l-2.337,4.674c-28.136,-8.89 -48.207,-26.761 -60.213,-53.614c-11.914,26.853 -31.985,44.724 -60.213,53.614l-2.337,-4.674c30.336,-21.721 47.703,-49.032 52.102,-81.934Z" style="fill:#666;fill-rule:nonzero;" />
    <path d="M180.221,89.138l0,-33.544l-29.007,0l0,-7.286l29.007,0l0,-14.434l19.246,0l0,14.434l45.779,0l0,40.83l21.583,0l0,40.967c0,9.989 -3.987,17.046 -11.96,21.17c-3.941,2.017 -7.974,3.025 -12.098,3.025l-2.474,-4.949c4.857,-3.208 7.286,-9.623 7.286,-19.246l0,-33.681l-48.116,0l0,62.55l-19.246,0l0,-62.55l-33.681,0l0,-7.286l33.681,0Zm45.778,0l0,-33.544l-26.532,0l0,33.544l26.532,0Zm36.018,-55.264l9.623,24.057l-19.246,0l-9.623,-24.057l19.246,0Z" style="fill:#666;fill-rule:nonzero;" />
    <path d="M311.92,69.892l-5.361,-14.298l19.246,0l5.361,14.298l37.255,0l5.499,-14.298l19.246,0l-5.498,14.298l19.933,0l0,65.162c0,10.173 -3.987,17.184 -11.96,21.033c-3.941,1.925 -7.973,2.887 -12.098,2.887l-2.474,-4.674c4.857,-3.299 7.286,-9.715 7.286,-19.246l0,-29.007l-9.623,0l0,43.304l-57.739,0l0,-42.892c-3.024,1.008 -5.728,1.604 -8.111,1.787l-1.649,-3.161l0,53.889l-19.247,0l0,-89.082l19.934,0Zm76.435,7.286l-77.122,0l0,25.432c5.865,-6.415 9.898,-13.289 12.097,-20.621l19.246,0c-1.008,4.674 -2.864,8.867 -5.567,12.579c-2.704,3.712 -6.118,6.759 -10.242,9.142l42.479,0l-12.097,-21.721l19.246,0l11.96,21.583l0,-26.394Zm-101.043,-33.681l52.927,0l0,-9.623l19.247,0l0,9.623l52.927,0l0,7.148l-125.101,0l0,-7.148Zm52.927,67.361l0,31.344l19.247,0l0,-31.344l-19.247,0Z" style="fill:#666;fill-rule:nonzero;" />
    <path d="M490.635,118.144l0,-7.286l21.583,-19.246l-72.173,0l0,-7.148l98.705,0l0,7.148l-28.869,25.708l0,0.824l43.304,0l0,7.149l-43.304,0l0,9.761c0,5.04 -0.962,9.348 -2.887,12.922c-1.925,3.574 -4.949,6.278 -9.073,8.111c-4.124,1.925 -8.157,2.887 -12.098,2.887l-2.474,-4.674c4.857,-3.299 7.286,-9.715 7.286,-19.246l0,-9.761l-62.55,0l0,-7.149l62.55,0Zm-60.213,-38.629l0,-21.584l84.27,0l9.624,-24.057l19.246,0l-9.623,24.057l16.909,0l0,21.584l-19.384,0l0,-14.298l-81.796,0l0,14.298l-19.246,0Zm7.286,-45.641l19.246,0l7.698,19.246l-19.383,0l-7.561,-19.246Zm36.018,0l19.246,0l7.836,19.246l-19.246,0l-7.836,-19.246Z" style="fill:#666;fill-rule:nonzero;" />
    <path d="M573.806,38.685l45.778,0l0,7.149l-4.811,38.63c3.207,4.857 4.811,10.448 4.811,16.771l0,28.87c0,9.898 -3.757,16.955 -11.273,21.17c-3.665,2.017 -7.423,3.025 -11.272,3.025l-2.475,-4.949c3.849,-3.116 5.774,-9.532 5.774,-19.246l0,-28.87c0,-6.323 -1.604,-11.914 -4.811,-16.771l4.811,-38.63l-7.286,0l0,113.14l-19.246,0l0,-120.289Zm60.213,67.362l-11.96,0l0,-7.286l72.173,0l0,7.286l-11.96,0l0,38.63c0,3.116 1.558,4.674 4.674,4.674l7.286,0l0,7.286l-16.909,0c-5.957,0 -10.127,-2.429 -12.51,-7.286c-0.55,-1.192 -1.008,-2.383 -1.375,-3.574c-0.367,-1.192 -0.55,-2.383 -0.55,-3.575l0,-36.155l-9.623,0l0,7.286c0,17.138 -4.811,29.877 -14.435,38.217c-4.765,4.308 -9.577,6.782 -14.434,7.424l-2.337,-4.674c7.973,-9.715 11.96,-23.371 11.96,-40.967l0,-7.286Zm9.623,-38.493l-19.246,0l0,-24.057l24.058,0l0,-9.623l19.246,0l0,9.623l24.195,0l0,24.057l-19.384,0l0,-16.909l-28.869,0l0,16.909Zm-14.435,7.287l57.739,0l0,7.148l-57.739,0l0,-7.148Z" style="fill:#666;fill-rule:nonzero;" />
  </g>
</svg>
