<?xml version="1.0" encoding="UTF-8"?>
<svg width="127px" height="17px" viewBox="0 0 127 17" version="1.1" xmlns="http://www.w3.org/2000/svg" xmlns:xlink="http://www.w3.org/1999/xlink">
    <title>运输技能云平台</title>
    <g id="Web页面" stroke="none" stroke-width="1" fill="none" fill-rule="evenodd">
        <path d="M4.640625,3.20703125 L4.0078125,0.74609375 L1.546875,0.74609375 L2.1796875,3.20703125 L4.640625,3.20703125 Z M16.3300781,2.27539062 L16.3300781,1.36132812 L5.87109375,1.36132812 L5.87109375,2.27539062 L16.3300781,2.27539062 Z M1.546875,16.7421875 C2.53125,16.6601562 3.328125,16.0742188 3.9375,14.984375 C4.5234375,15.9570312 5.47265625,16.4433594 6.78515625,16.4433594 L6.78515625,16.4433594 L16.9453125,16.4433594 L16.9453125,15.5117188 L6.78515625,15.5117188 C5.51953125,15.5117188 4.734375,14.9199219 4.4296875,13.7363281 C4.5703125,13.1503906 4.640625,12.5117188 4.640625,11.8203125 L4.640625,11.8203125 L4.640625,4.4375 L0.94921875,4.4375 L0.94921875,5.3515625 L2.1796875,5.3515625 L2.1796875,11.8203125 C2.1796875,13.8710938 1.86914062,15.3125 1.24804688,16.1445312 L1.24804688,16.1445312 L1.546875,16.7421875 Z M16.9453125,14.5976562 L15.2050781,8.74414062 L12.7441406,8.74414062 L14.1328125,13.3671875 L8.015625,13.3671875 L9.984375,6.8984375 L16.9453125,6.8984375 L16.9453125,5.984375 L5.25585938,5.984375 L5.25585938,6.8984375 L7.5234375,6.8984375 L5.5546875,13.3671875 L5.5546875,14.28125 L14.3964844,14.28125 L14.484375,14.5976562 L16.9453125,14.5976562 Z M23.9177344,16.7421875 L23.9177344,13.6835938 L25.0251562,13.6835938 L25.0251562,12.7519531 L23.9177344,12.7519531 L23.9177344,9.359375 L25.0251562,9.359375 L25.0251562,8.4453125 L23.9177344,8.4453125 L23.9177344,5.05273438 L21.6853125,5.05273438 L21.6853125,8.4453125 L21.1228125,8.4453125 L21.6501562,3.5234375 L25.0251562,3.5234375 L25.0251562,2.59179688 L21.7732031,2.59179688 L21.9665625,0.74609375 L20.0153906,0.74609375 L19.8044531,2.59179688 L19.1892187,2.59179688 L19.1892187,3.5234375 L19.7165625,3.5234375 L19.1892187,8.4453125 L19.1892187,9.359375 L21.6853125,9.359375 L21.6853125,12.7519531 L19.1892187,12.7519531 L19.1892187,13.6835938 L21.6853125,13.6835938 L21.6853125,16.7421875 L23.9177344,16.7421875 Z M33.99,6.28320312 L33.99,5.7734375 C34.365,5.890625 34.6638281,5.9609375 34.8864844,5.984375 L34.8864844,5.984375 L35.1853125,5.3515625 C33.4040625,3.921875 32.115,2.38671875 31.318125,0.74609375 L31.318125,0.74609375 L28.9099219,0.74609375 C28.1130469,2.38671875 26.818125,3.921875 25.0251562,5.3515625 L25.0251562,5.3515625 L25.3415625,5.984375 C25.5759375,5.9609375 25.8689062,5.890625 26.2204687,5.7734375 L26.2204687,5.7734375 L26.2204687,6.28320312 L33.99,6.28320312 Z M32.9704687,5.3515625 L27.24,5.3515625 C28.365,4.80078125 29.3200781,3.97460938 30.1052344,2.87304688 C30.9138281,3.98632812 31.8689062,4.8125 32.9704687,5.3515625 L32.9704687,5.3515625 Z M27.24,16.7421875 L27.24,13.0507812 L28.3298437,13.0507812 L28.3298437,13.6835938 C28.3298437,14.890625 28.1775,15.7109375 27.8728125,16.1445312 L27.8728125,16.1445312 L28.0661719,16.7421875 C28.4294531,16.7421875 28.7927344,16.6191406 29.1560156,16.3730469 C29.8942969,15.8808594 30.2634375,14.984375 30.2634375,13.6835938 L30.2634375,13.6835938 L30.2634375,6.8984375 L25.3415625,6.8984375 L25.3415625,16.7421875 L27.24,16.7421875 Z M32.4255469,16.7421875 C32.8474219,16.7421875 33.2575781,16.6191406 33.6560156,16.3730469 C34.4763281,15.8691406 34.8864844,14.9726562 34.8864844,13.6835938 L34.8864844,13.6835938 L34.9040625,6.8984375 L32.9880469,6.8984375 L32.9704687,13.6835938 C32.9939062,14.9023438 32.7536719,15.7226562 32.2497656,16.1445312 L32.2497656,16.1445312 L32.4255469,16.7421875 Z M32.4255469,14.9140625 L32.443125,7.51367188 L30.7907812,7.51367188 L30.7907812,14.9140625 L32.4255469,14.9140625 Z M28.3298437,9.67578125 L27.24,9.67578125 L27.24,7.8125 L28.3298437,7.8125 L28.3298437,9.67578125 Z M28.3298437,12.1367188 L27.24,12.1367188 L27.24,10.5898438 L28.3298437,10.5898438 L28.3298437,12.1367188 Z M53.1264844,16.7421875 L53.4253125,16.1445312 C52.3003125,15.5351562 51.1284375,14.6679688 49.9096875,13.5429688 C51.5151562,11.9375 52.5874219,9.92773438 53.1264844,7.51367188 L53.1264844,7.51367188 L53.1264844,6.58203125 L49.7339062,6.58203125 L49.7339062,3.82226562 L53.4253125,3.82226562 L53.4253125,2.890625 L49.7339062,2.890625 L49.7339062,0.74609375 L47.2729687,0.74609375 L47.2729687,2.890625 L43.5815625,2.890625 L43.5815625,3.82226562 L47.2729687,3.82226562 L47.2729687,6.58203125 L43.5815625,6.58203125 L43.5815625,7.51367188 L50.6479687,7.51367188 C50.2495312,9.00195312 49.4819531,10.4492188 48.3452344,11.8554688 C47.3960156,10.671875 46.6870312,9.4296875 46.2182812,8.12890625 L46.2182812,8.12890625 L43.7397656,8.12890625 C44.3139844,10.2734375 45.3335156,12.078125 46.7983594,13.5429688 C45.6030469,14.65625 44.4253125,15.5234375 43.2651562,16.1445312 L43.2651562,16.1445312 L43.5815625,16.7421875 C45.151875,16.5664062 46.7397656,15.921875 48.3452344,14.8085938 C49.9741406,15.921875 51.5678906,16.5664062 53.1264844,16.7421875 L53.1264844,16.7421875 Z M38.3432812,16.7421875 C38.870625,16.7421875 39.38625,16.6191406 39.8901562,16.3730469 C40.9096875,15.8808594 41.4194531,14.984375 41.4194531,13.6835938 L41.4194531,13.6835938 L41.4194531,11.2050781 L42.9663281,11.2050781 L42.9663281,10.2910156 L41.4194531,10.2910156 L41.4194531,4.4375 L42.9663281,4.4375 L42.9663281,3.5234375 L41.4194531,3.5234375 L41.4194531,0.74609375 L38.9585156,0.74609375 L38.9585156,3.5234375 L37.4292187,3.5234375 L37.4292187,4.4375 L38.9585156,4.4375 L38.9585156,10.2910156 L37.4292187,10.2910156 L37.4292187,11.2050781 L38.9585156,11.2050781 L38.9585156,13.6835938 C38.9585156,14.9023438 38.6479687,15.7226562 38.026875,16.1445312 L38.026875,16.1445312 L38.3432812,16.7421875 Z M64.3000781,6.28320312 L63.0696094,1.9765625 L60.6086719,1.9765625 L61.4875781,5.05273438 L58.7629688,5.05273438 L60.0110156,0.74609375 L57.5325,0.74609375 L56.3020313,5.05273438 L56.3020313,5.984375 L61.7688281,5.984375 L61.8391406,6.28320312 L64.3000781,6.28320312 Z M71.7004688,7.8125 L71.7004688,6.8984375 L68.0090625,6.8984375 C67.5989063,6.8984375 67.3938281,6.69335938 67.3938281,6.28320312 L67.3938281,6.28320312 L67.3938281,3.08398438 L71.7004688,2.27539062 L71.7004688,1.36132812 L67.3938281,2.15234375 L67.3938281,0.74609375 L64.9328906,0.74609375 L64.9328906,5.984375 C64.9328906,6.546875 65.0969531,6.9921875 65.4250781,7.3203125 C65.7532031,7.6484375 66.204375,7.8125 66.7785938,7.8125 L66.7785938,7.8125 L71.7004688,7.8125 Z M58.7629688,16.7421875 L58.7629688,13.3671875 L61.5403125,13.3671875 L61.5403125,13.6835938 C61.5403125,14.9023438 61.2297656,15.7226562 60.6086719,16.1445312 L60.6086719,16.1445312 L60.9250781,16.7421875 C61.4524219,16.7421875 61.9680469,16.6191406 62.4719531,16.3730469 C63.4914844,15.8808594 64.00125,14.984375 64.00125,13.6835938 L64.00125,13.6835938 L64.00125,6.8984375 L56.3020313,6.8984375 L56.3020313,16.7421875 L58.7629688,16.7421875 Z M61.5403125,9.67578125 L58.7629688,9.67578125 L58.7629688,7.8125 L61.5403125,7.8125 L61.5403125,9.67578125 Z M71.7004688,16.4433594 L71.7004688,15.5117188 L68.0090625,15.5117188 C67.5989063,15.5117188 67.3938281,15.3125 67.3938281,14.9140625 L67.3938281,14.9140625 L67.3938281,11.0996094 L71.7004688,10.2910156 L71.7004688,9.359375 L67.3938281,10.1679688 L67.3938281,8.74414062 L64.9328906,8.74414062 L64.9328906,14.5976562 C64.9328906,15.1601562 65.0998828,15.6083984 65.4338672,15.9423828 C65.7678516,16.2763672 66.2160938,16.4433594 66.7785938,16.4433594 L66.7785938,16.4433594 L71.7004688,16.4433594 Z M61.5403125,12.4355469 L58.7629688,12.4355469 L58.7629688,10.5898438 L61.5403125,10.5898438 L61.5403125,12.4355469 Z M89.2900781,2.31054688 L89.2900781,1.39648438 L74.506875,1.39648438 L74.506875,2.31054688 L89.2900781,2.31054688 Z M89.9053125,16.7773438 L86.8291406,9.69335938 L84.3682031,9.69335938 L86.9170313,15.546875 L76.9678125,15.546875 L79.9209375,8.1640625 L89.9053125,8.1640625 L89.9053125,7.23242188 L73.9092188,7.23242188 L73.9092188,8.1640625 L77.46,8.1640625 L74.506875,15.546875 L74.506875,16.4785156 L87.30375,16.4785156 L87.444375,16.7773438 L89.9053125,16.7773438 Z M101.377734,16.7773438 L101.377734,11.2402344 L108.145312,11.2402344 L108.145312,10.3261719 L101.377734,10.3261719 L101.377734,2.31054688 L107.530078,2.31054688 L107.530078,1.39648438 L92.746875,1.39648438 L92.746875,2.31054688 L98.9167969,2.31054688 L98.9167969,10.3261719 L92.1492187,10.3261719 L92.1492187,11.2402344 L98.9167969,11.2402344 L98.9167969,16.7773438 L101.377734,16.7773438 Z M105.367969,9.39453125 L106.914844,3.22460938 L104.453906,3.22460938 L102.907031,9.39453125 L105.367969,9.39453125 Z M97.3699219,9.39453125 L95.840625,3.22460938 L93.3796875,3.22460938 L94.9089844,9.39453125 L97.3699219,9.39453125 Z M126.420469,7.19726562 L122.94,1.34375 L120.479062,1.34375 L123.22125,5.96679688 L113.482969,5.96679688 L116.559141,0.728515625 L114.098203,0.728515625 L111.022031,5.96679688 L111.022031,6.8984375 L123.766172,6.8984375 L123.959531,7.19726562 L126.420469,7.19726562 Z M125.19,16.4257812 L125.19,8.42773438 L111.637266,8.42773438 L111.637266,16.4257812 L125.19,16.4257812 Z M122.729062,15.5117188 L114.098203,15.5117188 L114.098203,9.359375 L122.729062,9.359375 L122.729062,15.5117188 Z" id="运输技能云平台" fill="#FFFFFF" fill-rule="nonzero"></path>
    </g>
</svg>