<?xml version="1.0" encoding="utf-8"?>
<!-- Generator: Adobe Illustrator 19.0.0, SVG Export Plug-In . SVG Version: 6.00 Build 0)  -->
<svg version="1.1" id="图层_1" xmlns="http://www.w3.org/2000/svg" xmlns:xlink="http://www.w3.org/1999/xlink" x="0px" y="0px"
	 viewBox="0 0 166 48" style="enable-background:new 0 0 166 48;" xml:space="preserve">
<style type="text/css">
	.st0{fill:#CE2C29;}
	.st1{opacity:8.000000e-002;stroke:#000000;stroke-width:0.5;stroke-miterlimit:10;}
	.st2{fill:#FFFFFF;}
	.st3{fill:#3399FF;}
	.st4{fill:#FF6600;}
	.st5{fill:#339900;}
</style>
<g id="XMLID_1_">
	<g id="XMLID_5_">
		<path id="logo_1_" class="st0" d="M45.3,23.7C45.3,36.1,35.4,46,23,46C10.6,46,0.7,36.1,0.7,23.7C0.7,11.3,10.5,1.4,23,1.4
			C35.4,1.4,45.4,11.3,45.3,23.7z M10.3,19.4c-0.2,0.1-0.4,0.2-0.6,0.3c-1.3,1.3-2.6,2.5-3.8,3.8c-0.3,0.3-0.3,0.7,0.1,1
			c0.3,0.2,0.7,0.4,1,0.7c4.7,3.6,8.4,8.1,11.4,13.2c0.4,0.7,0.8,0.7,1.2,0c2.4-3.8,5.1-7.2,8.1-10.4c4.1-4.4,8.6-8.2,13.4-11.7
			c0.6-0.5,0.7-0.8,0.4-1.5c-1-1.9-2.2-3.7-3.7-5.2c-0.6-0.6-0.8-0.7-1.5-0.1c-1.7,1.4-3.5,2.9-5.2,4.4c-4.6,4.1-8.6,8.8-11.7,14.1
			c-0.3,0.5-0.6,0.5-1,0c-2-3.2-4.5-5.9-7.5-8.1C10.8,19.6,10.6,19.5,10.3,19.4z"/>
		<circle id="logo蒙层" class="st1" cx="23" cy="23.7" r="20.6"/>
		<path id="logo_2_" class="st2" d="M10.3,19.4c-0.2,0.1-0.4,0.2-0.6,0.3c-1.3,1.3-2.6,2.5-3.8,3.8c-0.3,0.3-0.3,0.7,0.1,1
			c0.3,0.2,0.7,0.4,1,0.7c4.7,3.6,8.4,8.1,11.4,13.2c0.4,0.7,0.8,0.7,1.2,0c2.4-3.8,5.1-7.2,8.1-10.4c4.1-4.4,8.6-8.2,13.4-11.7
			c0.6-0.5,0.7-0.8,0.4-1.5c-1-1.9-2.2-3.7-3.7-5.2c-0.6-0.6-0.8-0.7-1.5-0.1c-1.7,1.4-3.5,2.9-5.2,4.4c-4.6,4.1-8.6,8.8-11.7,14.1
			c-0.3,0.5-0.6,0.5-1,0c-2-3.2-4.5-5.9-7.5-8.1C10.8,19.6,10.6,19.5,10.3,19.4z"/>
	</g>
	<g id="XMLID_2_">
		<path id="XMLID_3_" class="st3" d="M56.6,11h2L59,6.6h6.8L65.3,11H73l-1.4,18.3L68,34.6l4.6,7.1h-7.1L64.5,40l-1.1,1.7h-6.8
			l4.5-6.9l-4-6.2l1.2-14.8h-1.8V11z M65.1,13.8l-1.2,14.5l0.7,1.1l0.9-1.3l1.3-14.2H65.1z M73.7,7.4h17.7l-4.6,13.3v2h4.8v2.8h-4.8
			v12.7c0,1.9-1.7,3.5-3.8,3.5h-7.4V39h2.3c0.7,0,1.1-0.5,1.1-1.1V25.6h-5.4v-2.8h5.4v-2.4l4-10.9h-9.4V7.4z"/>
		<path id="XMLID_11_" class="st4" d="M103.7,27.4l-1.8,14h-8.2l1.8-14H103.7z M103.1,10.6V22h3.9v-9.7h8.7V22h12.5v2.8h-12.5v13.2
			c0,1.9-1.6,3.5-3.5,3.5H103v-2.8h2.9c0.6,0,1.1-0.4,1.1-1.1V24.8H94.3V7.8h32.1v2.8H103.1z M120.2,41.4l-1.8-14h8.2l1.8,14H120.2z
			"/>
		<path id="XMLID_15_" class="st5" d="M150.9,6.8l1.2,5.2h2.6l1.3-5.2h8l-1.3,5.2h2.5v7.7h-7.9v-4.9h-19v4.9h-7.9V12h2.1l-1.3-5.2h8
			l1.3,5.2h3.5l-1.3-5.2H150.9z M134.3,20.8h26.5l-7.3,8.7h11.8v2.8h-13v5.9c0,1.9-1.6,3.5-3.5,3.5h-9.9v-2.8h4.1
			c0.6,0,1.1-0.5,1.1-1v-5.6h-13.5v-2.8h13.7l5.1-5.9h-15V20.8z"/>
	</g>
</g>
</svg>
